<mxfile host="app.diagrams.net" agent="Mozilla/5.0 (X11; Linux x86_64) AppleWebKit/537.36 (KHTML, like Gecko) Chrome/133.0.0.0 Safari/537.36" version="26.0.14">
  <diagram name="Page-1" id="e7e014a7-5840-1c2e-5031-d8a46d1fe8dd">
    <mxGraphModel dx="819" dy="431" grid="1" gridSize="10" guides="1" tooltips="1" connect="1" arrows="1" fold="1" page="1" pageScale="1" pageWidth="1169" pageHeight="826" background="none" math="0" shadow="0">
      <root>
        <mxCell id="0" />
        <mxCell id="1" parent="0" />
        <mxCell id="1VD505ahWN0VDyeNclxT-41" value="" style="ellipse;html=1;shape=startState;labelBackgroundColor=none;" vertex="1" parent="1">
          <mxGeometry x="550" y="20" width="30" height="30" as="geometry" />
        </mxCell>
        <mxCell id="1VD505ahWN0VDyeNclxT-42" value="" style="edgeStyle=orthogonalEdgeStyle;html=1;verticalAlign=bottom;endArrow=open;endSize=8;rounded=0;labelBackgroundColor=none;fontColor=default;" edge="1" source="1VD505ahWN0VDyeNclxT-41" parent="1">
          <mxGeometry relative="1" as="geometry">
            <mxPoint x="565" y="110" as="targetPoint" />
          </mxGeometry>
        </mxCell>
        <mxCell id="1VD505ahWN0VDyeNclxT-43" value="Enter required informations&amp;nbsp;" style="rounded=1;whiteSpace=wrap;html=1;arcSize=40;labelBackgroundColor=none;" vertex="1" parent="1">
          <mxGeometry x="505" y="110" width="120" height="40" as="geometry" />
        </mxCell>
        <mxCell id="1VD505ahWN0VDyeNclxT-44" value="" style="edgeStyle=orthogonalEdgeStyle;html=1;verticalAlign=bottom;endArrow=open;endSize=8;rounded=0;labelBackgroundColor=none;fontColor=default;" edge="1" source="1VD505ahWN0VDyeNclxT-43" parent="1">
          <mxGeometry relative="1" as="geometry">
            <mxPoint x="565" y="210" as="targetPoint" />
          </mxGeometry>
        </mxCell>
        <mxCell id="1VD505ahWN0VDyeNclxT-45" value="Verify the informations" style="rounded=1;whiteSpace=wrap;html=1;arcSize=40;labelBackgroundColor=none;" vertex="1" parent="1">
          <mxGeometry x="505" y="210" width="120" height="40" as="geometry" />
        </mxCell>
        <mxCell id="1VD505ahWN0VDyeNclxT-46" value="" style="edgeStyle=orthogonalEdgeStyle;html=1;verticalAlign=bottom;endArrow=open;endSize=8;rounded=0;labelBackgroundColor=none;fontColor=default;" edge="1" source="1VD505ahWN0VDyeNclxT-45" parent="1">
          <mxGeometry relative="1" as="geometry">
            <mxPoint x="565" y="310" as="targetPoint" />
          </mxGeometry>
        </mxCell>
        <mxCell id="1VD505ahWN0VDyeNclxT-47" value="" style="rhombus;whiteSpace=wrap;html=1;labelBackgroundColor=none;" vertex="1" parent="1">
          <mxGeometry x="525" y="310" width="80" height="40" as="geometry" />
        </mxCell>
        <mxCell id="1VD505ahWN0VDyeNclxT-48" value="Invalid" style="edgeStyle=orthogonalEdgeStyle;html=1;align=left;verticalAlign=bottom;endArrow=open;endSize=8;rounded=0;entryX=0.5;entryY=1;entryDx=0;entryDy=0;labelBackgroundColor=none;fontColor=default;" edge="1" source="1VD505ahWN0VDyeNclxT-47" parent="1" target="1VD505ahWN0VDyeNclxT-50">
          <mxGeometry x="-1" relative="1" as="geometry">
            <mxPoint x="700" y="330" as="targetPoint" />
          </mxGeometry>
        </mxCell>
        <mxCell id="1VD505ahWN0VDyeNclxT-49" value="valid" style="edgeStyle=orthogonalEdgeStyle;html=1;align=left;verticalAlign=top;endArrow=open;endSize=8;rounded=0;labelBackgroundColor=none;fontColor=default;" edge="1" source="1VD505ahWN0VDyeNclxT-47" parent="1">
          <mxGeometry x="-1" relative="1" as="geometry">
            <mxPoint x="565" y="413" as="targetPoint" />
            <mxPoint as="offset" />
          </mxGeometry>
        </mxCell>
        <mxCell id="1VD505ahWN0VDyeNclxT-50" value="Show error message" style="rounded=1;whiteSpace=wrap;html=1;arcSize=40;labelBackgroundColor=none;" vertex="1" parent="1">
          <mxGeometry x="660" y="210" width="120" height="40" as="geometry" />
        </mxCell>
        <mxCell id="1VD505ahWN0VDyeNclxT-51" value="" style="edgeStyle=orthogonalEdgeStyle;html=1;verticalAlign=bottom;endArrow=open;endSize=8;rounded=0;entryX=1;entryY=0.5;entryDx=0;entryDy=0;labelBackgroundColor=none;fontColor=default;" edge="1" source="1VD505ahWN0VDyeNclxT-50" parent="1" target="1VD505ahWN0VDyeNclxT-43">
          <mxGeometry relative="1" as="geometry">
            <mxPoint x="720" y="310" as="targetPoint" />
            <Array as="points">
              <mxPoint x="720" y="130" />
            </Array>
          </mxGeometry>
        </mxCell>
        <mxCell id="1VD505ahWN0VDyeNclxT-52" value="Send verification email" style="rounded=1;whiteSpace=wrap;html=1;arcSize=40;labelBackgroundColor=none;" vertex="1" parent="1">
          <mxGeometry x="505" y="413" width="120" height="40" as="geometry" />
        </mxCell>
        <mxCell id="1VD505ahWN0VDyeNclxT-53" value="" style="edgeStyle=orthogonalEdgeStyle;html=1;verticalAlign=bottom;endArrow=open;endSize=8;rounded=0;entryX=0.5;entryY=0;entryDx=0;entryDy=0;labelBackgroundColor=none;fontColor=default;" edge="1" source="1VD505ahWN0VDyeNclxT-52" parent="1" target="1VD505ahWN0VDyeNclxT-54">
          <mxGeometry relative="1" as="geometry">
            <mxPoint x="565" y="513" as="targetPoint" />
          </mxGeometry>
        </mxCell>
        <mxCell id="1VD505ahWN0VDyeNclxT-54" value="Verify the account" style="rounded=1;whiteSpace=wrap;html=1;arcSize=40;labelBackgroundColor=none;" vertex="1" parent="1">
          <mxGeometry x="505" y="510" width="120" height="40" as="geometry" />
        </mxCell>
        <mxCell id="1VD505ahWN0VDyeNclxT-55" value="" style="edgeStyle=orthogonalEdgeStyle;html=1;verticalAlign=bottom;endArrow=open;endSize=8;rounded=0;labelBackgroundColor=none;fontColor=default;" edge="1" source="1VD505ahWN0VDyeNclxT-54" parent="1">
          <mxGeometry relative="1" as="geometry">
            <mxPoint x="565" y="610" as="targetPoint" />
          </mxGeometry>
        </mxCell>
        <mxCell id="1VD505ahWN0VDyeNclxT-58" value="" style="ellipse;html=1;shape=endState;labelBackgroundColor=none;" vertex="1" parent="1">
          <mxGeometry x="550" y="610" width="30" height="30" as="geometry" />
        </mxCell>
      </root>
    </mxGraphModel>
  </diagram>
</mxfile>
